<?xml version="1.0" standalone="no"?><!DOCTYPE svg PUBLIC "-//W3C//DTD SVG 1.1//EN" "http://www.w3.org/Graphics/SVG/1.1/DTD/svg11.dtd"><svg class="icon" height="512" fill="#fff" viewBox="0 0 1024 1024" version="1.1" xmlns="http://www.w3.org/2000/svg"><path d="M116.864 275.925h584.384v58.432h-584.384v-58.432zM116.864 403.733h584.384v58.432h-584.384v-58.432zM891.008 768.661h-70.016v-70.016c0-11.648-9.344-20.992-20.992-20.992s-20.992 9.344-20.992 20.992v70.016h-70.016c-11.648 0-20.992 9.344-20.992 20.992s9.344 20.992 20.992 20.992h70.016v70.016c0 11.648 9.344 20.992 20.992 20.992s20.992-9.344 20.992-20.992v-70.016h70.016c11.648 0 20.992-9.344 20.992-20.992s-9.344-20.992-20.992-20.992zM800 565.653c-123.712 0-224 100.352-224 224 0 123.776 100.288 224 224 224s224-100.224 224-224c0-123.648-100.288-224-224-224zM800 971.669c-100.48 0-181.952-81.472-181.952-182.016s81.472-181.888 181.952-181.888 182.016 81.344 182.016 181.888-81.536 182.016-182.016 182.016zM116.864 848.149h401.152c-3.904-18.88-6.016-38.528-6.016-58.496h-395.136v58.496zM545.856 656.917h-428.992v58.496l406.016 0c5.504-20.672 13.312-40 22.976-58.496zM681.28 527.957h-564.416v58.496h479.168c24.384-24.576 53.376-44.032 85.248-58.496zM564.992 955.285h-506.624v-818.176h32.896v31.68c0 16.128 13.12 29.248 29.248 29.248s29.248-13.12 29.248-29.248v-31.68h56.896v31.68c0 16.128 13.12 29.248 29.248 29.248 16.064 0 29.184-13.12 29.184-29.248v-31.68h57.28v31.68c0 16.128 13.12 29.248 29.184 29.248 16.128 0 29.248-13.12 29.248-29.248l-0-31.68h58.112v31.68c0 16.128 13.12 29.248 29.248 29.248s29.248-13.12 29.248-29.248v-31.68h57.152v31.68c0 16.128 13.12 29.248 29.248 29.248 16.064 0 29.184-13.12 29.184-29.248l-0-31.68h56.64v31.68c0 16.128 13.12 29.248 29.248 29.248 16.064 0 29.184-13.12 29.184-29.248v-31.68h31.68v368.64c13.312-1.856 26.496-4.032 40.32-4.032 6.208 0 12.032 1.408 18.112 1.792l0-424.832h-90.112l-0-26.752c0-16.128-13.12-29.248-29.184-29.248-16.128 0-29.248 13.12-29.248 29.248v26.752l-56.704 0v-26.752c0-16.128-13.12-29.248-29.184-29.248-16.128 0-29.248 13.12-29.248 29.248v26.752l-57.152 0v-26.752c0-16.128-13.12-29.248-29.248-29.248s-29.248 13.12-29.248 29.248v26.752l-58.112 0v-26.752c0-16.128-13.12-29.248-29.248-29.248-16.064 0-29.184 13.12-29.184 29.248v26.752l-57.216 0v-26.752c0-16.128-13.12-29.248-29.184-29.248-16.128 0-29.248 13.12-29.248 29.248v26.752l-56.896 0v-26.752c0-16.128-13.12-29.248-29.248-29.248s-29.248 13.12-29.248 29.248v26.752l-91.264 0v935.104h621.12c-21.248-17.024-40.448-36.288-56.128-58.496z" /></svg>